<svg xmlns="http://www.w3.org/2000/svg" xmlns:xlink="http://www.w3.org/1999/xlink" width="256" height="256" viewBox="0 0 388.314 197">
  <defs>
    <clipPath id="clip-path">
      <rect id="Rectangle_8604" data-name="Rectangle 8604" width="388.314" height="197" transform="translate(43.166 779)" fill="none"/>
    </clipPath>
  </defs>
  <g id="Group_8343" data-name="Group 8343" transform="translate(-43.166 -779)" opacity="0.7">
    <g id="Group_8342" data-name="Group 8342">
      <g id="Group_8341" data-name="Group 8341" clip-path="url(#clip-path)">
        <rect id="Rectangle_8570" data-name="Rectangle 8570" width="184.859" height="185.619" transform="translate(49.24 784.687)" fill="#705c4d"/>
        <path id="Path_2796" data-name="Path 2796" d="M217.081,976v-5.685h17.157v-28.89H144.673v-5.818h50.158Q168.19,908.966,141.224,882l-25.1,25.118-3.883-3.944,25.2-25.19-53.7-53.7V931.021l23.913-23.958,4.381,4.236-24.376,24.22h51v5.842H49.055v28.821H211.31V976H43.166V935.6H77.672V819.4H43.166V779H66.135v5.664H49.071v28.9h89.544v5.794H88.327L141.666,872.7l53.274-53.276H144.657v-5.741h89.638V784.862H72.157v-5.755H240.009v40.235H205.647V935.558h34.52V976ZM199.6,930.779V824.238c-17.778,17.778-35.626,35.624-53.271,53.27L199.6,930.779" fill="#4c3929"/>
        <rect id="Rectangle_8571" data-name="Rectangle 8571" width="5.653" height="104.656" transform="translate(43.166 825.172)" fill="#4c3929"/>
        <rect id="Rectangle_8572" data-name="Rectangle 8572" width="5.53" height="104.475" transform="translate(234.533 825.258)" fill="#4c3929"/>
        <rect id="Rectangle_8573" data-name="Rectangle 8573" width="17.085" height="5.622" transform="translate(138.896 790.618)" fill="#4c3929"/>
        <rect id="Rectangle_8574" data-name="Rectangle 8574" width="5.535" height="17.069" transform="translate(222.988 836.804)" fill="#4c3929"/>
        <rect id="Rectangle_8575" data-name="Rectangle 8575" width="5.434" height="5.584" transform="translate(127.406 790.6)" fill="#4c3929"/>
        <rect id="Rectangle_8576" data-name="Rectangle 8576" width="5.564" height="5.53" transform="translate(60.601 796.418)" fill="#4c3929"/>
        <rect id="Rectangle_8577" data-name="Rectangle 8577" width="5.541" height="5.531" transform="translate(217.213 796.406)" fill="#4c3929"/>
        <rect id="Rectangle_8578" data-name="Rectangle 8578" width="5.531" height="5.541" transform="translate(171.001 825.27)" fill="#4c3929"/>
        <rect id="Rectangle_8579" data-name="Rectangle 8579" width="5.553" height="5.519" transform="translate(222.979 825.281)" fill="#4c3929"/>
        <rect id="Rectangle_8580" data-name="Rectangle 8580" width="17.072" height="5.549" transform="translate(127.331 958.797)" fill="#4c3929"/>
        <rect id="Rectangle_8581" data-name="Rectangle 8581" width="5.535" height="5.563" transform="translate(150.42 958.79)" fill="#4c3929"/>
        <rect id="Rectangle_8582" data-name="Rectangle 8582" width="5.542" height="5.576" transform="translate(106.751 924.137)" fill="#4c3929"/>
        <rect id="Rectangle_8583" data-name="Rectangle 8583" width="5.598" height="5.507" transform="translate(60.522 953.063)" fill="#4c3929"/>
        <rect id="Rectangle_8584" data-name="Rectangle 8584" width="5.531" height="5.566" transform="translate(217.184 953)" fill="#4c3929"/>
        <rect id="Rectangle_8585" data-name="Rectangle 8585" width="5.542" height="17.069" transform="translate(54.841 901.063)" fill="#4c3929"/>
        <rect id="Rectangle_8586" data-name="Rectangle 8586" width="5.52" height="5.53" transform="translate(54.852 924.138)" fill="#4c3929"/>
        <rect id="Rectangle_8587" data-name="Rectangle 8587" width="184.859" height="185.619" transform="translate(240.552 784.687)" fill="#705c4d"/>
        <path id="Path_2797" data-name="Path 2797" d="M408.393,976v-5.685H425.55v-28.89H335.985v-5.818h50.158Q359.5,908.966,332.536,882l-25.1,25.118-3.883-3.944,25.2-25.19-53.7-53.7V931.021l23.913-23.958,4.381,4.236-24.376,24.22h51v5.842H240.367v28.821H402.622V976H234.478V935.6h34.506V819.4H234.478V779h22.969v5.664H240.383v28.9h89.544v5.794H279.639L332.978,872.7l53.274-53.276H335.969v-5.741h89.638V784.862H263.469v-5.755H431.321v40.235H396.959V935.558H431.48V976Zm-17.476-45.221V824.238c-17.778,17.778-35.626,35.624-53.271,53.27l53.271,53.271" fill="#4c3929"/>
        <rect id="Rectangle_8588" data-name="Rectangle 8588" width="5.653" height="104.656" transform="translate(234.478 825.172)" fill="#4c3929"/>
        <rect id="Rectangle_8589" data-name="Rectangle 8589" width="5.53" height="104.475" transform="translate(425.846 825.258)" fill="#4c3929"/>
        <rect id="Rectangle_8590" data-name="Rectangle 8590" width="17.085" height="5.622" transform="translate(330.208 790.618)" fill="#4c3929"/>
        <rect id="Rectangle_8591" data-name="Rectangle 8591" width="5.535" height="17.069" transform="translate(414.3 836.804)" fill="#4c3929"/>
        <rect id="Rectangle_8592" data-name="Rectangle 8592" width="5.434" height="5.584" transform="translate(318.719 790.6)" fill="#4c3929"/>
        <rect id="Rectangle_8593" data-name="Rectangle 8593" width="5.564" height="5.53" transform="translate(251.914 796.418)" fill="#4c3929"/>
        <rect id="Rectangle_8594" data-name="Rectangle 8594" width="5.541" height="5.531" transform="translate(408.525 796.406)" fill="#4c3929"/>
        <rect id="Rectangle_8595" data-name="Rectangle 8595" width="5.531" height="5.541" transform="translate(362.313 825.27)" fill="#4c3929"/>
        <rect id="Rectangle_8596" data-name="Rectangle 8596" width="5.553" height="5.519" transform="translate(414.291 825.281)" fill="#4c3929"/>
        <rect id="Rectangle_8597" data-name="Rectangle 8597" width="17.072" height="5.549" transform="translate(318.643 958.797)" fill="#4c3929"/>
        <rect id="Rectangle_8598" data-name="Rectangle 8598" width="5.535" height="5.563" transform="translate(341.733 958.79)" fill="#4c3929"/>
        <rect id="Rectangle_8599" data-name="Rectangle 8599" width="5.542" height="5.576" transform="translate(298.063 924.137)" fill="#4c3929"/>
        <rect id="Rectangle_8600" data-name="Rectangle 8600" width="5.598" height="5.507" transform="translate(251.834 953.063)" fill="#4c3929"/>
        <rect id="Rectangle_8601" data-name="Rectangle 8601" width="5.531" height="5.566" transform="translate(408.497 953)" fill="#4c3929"/>
        <rect id="Rectangle_8602" data-name="Rectangle 8602" width="5.542" height="17.069" transform="translate(246.153 901.063)" fill="#4c3929"/>
        <rect id="Rectangle_8603" data-name="Rectangle 8603" width="5.52" height="5.53" transform="translate(246.164 924.138)" fill="#4c3929"/>
      </g>
    </g>
  </g>
</svg>
