<svg xmlns="http://www.w3.org/2000/svg" xmlns:xlink="http://www.w3.org/1999/xlink" width="128" height="128" viewBox="0 0 289.83 289.77">
  <defs>
    <clipPath id="clip-path">
      <rect id="Rectangle_8489" data-name="Rectangle 8489" width="289.83" height="289.77" transform="translate(1551.34 1688.45)" fill="none" stroke="#110202" stroke-width="1"/>
    </clipPath>
  </defs>
  <g id="Group_8292" data-name="Group 8292" transform="translate(-1551.34 -1688.45)" opacity="0.7">
    <g id="Group_8291" data-name="Group 8291">
      <g id="Group_8290" data-name="Group 8290" clip-path="url(#clip-path)">
        <path id="Path_2626" data-name="Path 2626" d="M1613.442,1957.749c0,4.619.008,9.025,0,13.431-.013,5.329-1.661,7.027-6.879,7.031q-24.093.016-48.185,0c-5.436,0-7.033-1.64-7.033-7.2q-.006-74.2,0-148.407,0-63.209,0-126.42c0-6.368,1.38-7.74,7.778-7.74h274.236c6.421,0,7.81,1.371,7.81,7.715q0,137.091,0,274.18c0,6.548-1.342,7.869-7.986,7.869q-23.607,0-47.215,0c-5.241,0-6.885-1.687-6.9-7.006-.01-4.409,0-8.817,0-13.456Zm194.7-217.56h-3.392c-17.356,0-34.712.033-52.067-.044a6.482,6.482,0,0,0-5.063,2.1q-80.323,80.422-160.722,160.769c-.726.726-1.4,1.51-2.4,2.6.949.079,1.45.157,1.951.157,18.11.006,36.221.05,54.33-.084a6.606,6.606,0,0,0,4.026-2.027q80.444-80.3,160.783-160.705c.727-.727,1.4-1.511,2.552-2.766m-246.31-10.57h268.722v-30.657H1561.833Zm0,217.328h268.722V1916.29H1561.833Zm268.853-206.379c-5.256-1.407-8.771.373-12.231,4.041-8.647,9.169-17.711,17.948-26.692,26.8a7.156,7.156,0,0,0-2.412,5.6q.123,62.553.059,125.107v3.434h41.276Zm-227.59-.208h-41.225v165.115c4.805,1.023,8.377-.064,11.84-3.759,8.764-9.352,17.992-18.275,27.147-27.255a7.132,7.132,0,0,0,2.283-5.652q-.093-62.391-.045-124.783Zm175.81,165.3v-121.1c-.681.574-1.087.867-1.437,1.217q-24.348,24.33-48.626,48.731a6.6,6.6,0,0,0-1.476,4.264c-.092,21.221-.065,42.443-.057,63.665,0,1.04.094,2.081.15,3.228Zm-165.25-165.312v120.992c.791-.677,1.285-1.047,1.716-1.478q24.134-24.114,48.2-48.3a6.58,6.58,0,0,0,1.565-4.229c.1-21.34.067-42.681.067-64.021v-2.969Zm103.149,165.324v-58.792a4.8,4.8,0,0,0-.965.533q-19.539,19.5-39.04,39.041a3.671,3.671,0,0,0-1.188,2.142c-.1,5.659-.054,11.32-.054,17.076Zm-41.045-165.339v58.579c.4-.13.646-.134.77-.258q19.679-19.625,39.318-39.289a3.593,3.593,0,0,0,1.056-2.2c.088-5.565.048-11.132.048-16.832Zm-113.929,227.314h41v-9.955h-41Zm227.725,0h41v-9.959h-41Zm-124.428-68.6-6.594,6.5h6.594Zm62.325-152.367,6.575-6.228h-6.575Z" fill="#4c3929"/>
        <path id="Path_2627" data-name="Path 2627" d="M1808.144,1740.189c-1.155,1.255-1.826,2.039-2.553,2.766q-80.365,80.378-160.782,160.705a6.608,6.608,0,0,1-4.026,2.027c-18.109.134-36.22.09-54.33.084-.5,0-1-.078-1.952-.157,1-1.091,1.672-1.874,2.4-2.6q80.371-80.375,160.721-160.769a6.485,6.485,0,0,1,5.063-2.1c17.356.077,34.712.044,52.067.044Z" fill="#705c4d"/>
        <rect id="Rectangle_8485" data-name="Rectangle 8485" width="268.722" height="30.657" transform="translate(1561.834 1698.962)" fill="#705c4d"/>
        <rect id="Rectangle_8486" data-name="Rectangle 8486" width="268.722" height="30.657" transform="translate(1561.834 1916.29)" fill="#705c4d"/>
        <path id="Path_2628" data-name="Path 2628" d="M1830.687,1740.568v164.978h-41.276v-3.434q0-62.553-.059-125.106a7.147,7.147,0,0,1,2.412-5.6c8.98-8.851,18.045-17.629,26.692-26.8,3.459-3.668,6.975-5.448,12.231-4.042" fill="#705c4d"/>
        <path id="Path_2629" data-name="Path 2629" d="M1603.1,1740.361v3.666q0,62.391.045,124.783a7.133,7.133,0,0,1-2.283,5.652c-9.155,8.979-18.382,17.9-27.147,27.255-3.463,3.695-7.035,4.781-11.84,3.759V1740.361Z" fill="#705c4d"/>
        <path id="Path_2630" data-name="Path 2630" d="M1778.907,1905.656H1727.46c-.055-1.147-.149-2.188-.149-3.228-.009-21.222-.035-42.444.057-63.665a6.6,6.6,0,0,1,1.475-4.264q24.213-24.465,48.627-48.731c.35-.35.756-.643,1.437-1.217Z" transform="translate(0.08 0.185)" fill="#705c4d"/>
        <path id="Path_2631" data-name="Path 2631" d="M1613.656,1740.344H1665.2v2.97c0,21.34.031,42.68-.067,64.019a6.581,6.581,0,0,1-1.565,4.231q-24,24.242-48.2,48.3c-.431.431-.925.8-1.716,1.477Z" fill="#705c4d"/>
        <path id="Path_2632" data-name="Path 2632" d="M1716.805,1905.668h-41.247c0-5.755-.044-11.417.054-17.076a3.67,3.67,0,0,1,1.189-2.142q19.486-19.552,39.039-39.04a4.841,4.841,0,0,1,.965-.534Z" fill="#705c4d"/>
        <path id="Path_2633" data-name="Path 2633" d="M1675.761,1740.329h41.191c0,5.7.041,11.267-.047,16.833a3.594,3.594,0,0,1-1.057,2.2q-19.62,19.683-39.318,39.289c-.124.124-.367.128-.769.258Z" fill="#705c4d"/>
        <rect id="Rectangle_8487" data-name="Rectangle 8487" width="41.001" height="9.955" transform="translate(1561.831 1957.688)" fill="#705c4d"/>
        <rect id="Rectangle_8488" data-name="Rectangle 8488" width="41.001" height="9.959" transform="translate(1789.557 1957.686)" fill="#705c4d"/>
        <path id="Path_2634" data-name="Path 2634" d="M1665.129,1899.048v6.5h-6.594l6.594-6.5" fill="#705c4d"/>
        <path id="Path_2635" data-name="Path 2635" d="M1727.453,1746.68v-6.228h6.575l-6.575,6.228" fill="#705c4d"/>
      </g>
    </g>
  </g>
</svg>
