<svg xmlns="http://www.w3.org/2000/svg" width="219.609" height="193.228" viewBox="0 0 219.609 193.228">
  <g id="Group_33" data-name="Group 33" transform="translate(717.221 -26.019)">
    <path id="Path_37" data-name="Path 37" d="M809.471,151a109.8,109.8,0,1,0,219.609,0" transform="translate(-1526.692 -41.558)" fill="#e2bc91"/>
    <path id="Path_38" data-name="Path 38" d="M963.106,176.09H961.1q-51.369-.02-102.738-.071a2.541,2.541,0,0,0-2.657,1.524c-.941,1.85-2.042,3.617-3.181,5.6H975.594c-.309-.617-.568-1.212-.891-1.77q-19.157-33.161-38.345-66.3c-.749-1.292-1-2.31-.044-3.646,1.165-1.633,2.069-3.452,3.256-5.483l4.494,7.78q19.66,34.038,39.287,68.1a2.506,2.506,0,0,0,2.645,1.49c2.127-.1,4.263-.028,6.717-.028-1.824-3.2-3.5-6.166-5.208-9.121q-18.422-31.923-36.857-63.839c-1.916-3.318-3.812-6.65-5.821-9.913a2.916,2.916,0,0,1-.034-3.657c1.149-1.651,2.063-3.464,3.236-5.477,1.573,2.671,3.029,5.1,4.447,7.559q11.8,20.42,23.584,40.85c7.941,13.765,15.911,27.514,23.775,41.323.991,1.739,2.032,2.548,4.071,2.316a53.835,53.835,0,0,1,5.814-.043L948.049,76.461l-36.291,62.821c2.872,0,5.434.058,7.988-.056.43-.019.936-.71,1.223-1.2,2.907-4.96,5.776-9.943,8.658-14.918.418-.722.849-1.437,1.457-2.466,5.046,8.742,9.948,17.234,15.028,26.032h-2.265q-34.274,0-68.549-.03a2.534,2.534,0,0,0-2.663,1.514c-.958,1.9-2.084,3.71-3.333,5.9h2.046q38.675,0,77.351-.033a2.43,2.43,0,0,1,2.508,1.446c1,1.877,2.123,3.685,3.317,5.732-.707.054-1.178.123-1.65.123q-42.822.007-85.644-.03c-1.516,0-2.513.306-3.207,1.76-.889,1.858-2,3.608-3.164,5.662h2.43q46.8,0,93.6-.039a2.81,2.81,0,0,1,3,1.78c.867,1.818,1.99,3.515,3.219,5.636" transform="translate(-1538.533 -21.043)"/>
    <path id="Path_39" data-name="Path 39" d="M955.763,128.128c2.845,0,5.316.065,7.778-.054a2.311,2.311,0,0,0,1.431-1.152q7.822-13.44,15.57-26.923,15.8-27.367,31.633-54.714a3.31,3.31,0,0,0-.042-4.086c-1.089-1.56-1.938-3.287-3.1-5.3-17.78,30.784-35.416,61.321-53.27,92.231" transform="translate(-1616.5 -9.88)"/>
    <path id="Path_40" data-name="Path 40" d="M943.992,133.712c2.818,0,5.242.062,7.657-.049a2.239,2.239,0,0,0,1.481-1.057c5.493-9.45,10.93-18.932,16.4-28.4q11.161-19.323,22.376-38.617c.825-1.414,1.108-2.5.057-3.949a62.323,62.323,0,0,1-3.184-5.457L944,133.71" transform="translate(-1587.752 -15.463)"/>
  </g>
</svg>
